# xmcd
#
# Track frame offsets: 
#        150
#        19399
#        32292
#        50339
#        63294
#        80304
#        94561
#        111281
#        135476
#        154694
#        174431
#        191177
#        201789
#        216369
#        241474
#
# Disc length: 3548 seconds
#
# Revision: 0
# Processed by: cddbd v1.5.2PL0 Copyright (c) Steve Scherf et al.
# Submitted via: ExactAudioCopy v1.0b1
#
DISCID=c50dda0f
DTITLE=Albert King - The Best Of Albert King
DYEAR=1998
DGENRE=Modern Electric Blues
TTITLE0=Born Under A Bad Sign
TTITLE1=Phone Booth
TTITLE2=Crosscut Saw
TTITLE3=I'll Play The Blues For You Pt 1
TTITLE4=Killing Floor
TTITLE5=Breaking Up Somebody's Home
TTITLE6=Cold Sweat
TTITLE7=Driving Wheel
TTITLE8=Flat Tire
TTITLE9=The Pinch Paid Off Pt 1
TTITLE10=Left Hand Woman (Get Right With Me)
TTITLE11=Blues Power
TTITLE12=I Get Evil (Don't You Lie To Me)
TTITLE13=Got To Be Some Changes Made
TTITLE14=For The Love Of A Woman
EXTD=
EXTT0=
EXTT1=
EXTT2=
EXTT3=
EXTT4=
EXTT5=
EXTT6=
EXTT7=
EXTT8=
EXTT9=
EXTT10=
EXTT11=
EXTT12=
EXTT13=
EXTT14=
PLAYORDER=
